<?xml version="1.0" encoding="UTF-8" standalone="no"?>
<!DOCTYPE svg PUBLIC "-//W3C//DTD SVG 1.1//EN"
 "http://www.w3.org/Graphics/SVG/1.1/DTD/svg11.dtd">
<!-- Generated by graphviz version 2.40.1 (0)
 -->
<!-- Title: G Pages: 1 -->
<svg width="648pt" height="104pt"
 viewBox="0.00 0.00 648.28 104.00" xmlns="http://www.w3.org/2000/svg" xmlns:xlink="http://www.w3.org/1999/xlink">
<g id="graph0" class="graph" transform="scale(1 1) rotate(0) translate(4 100)">
<title>G</title>
<polygon fill="#ffffff" stroke="transparent" points="-4,4 -4,-100 644.278,-100 644.278,4 -4,4"/>
<!-- a -->
<g id="node1" class="node">
<title>a</title>
<ellipse fill="none" stroke="#000000" cx="27" cy="-44" rx="27" ry="18"/>
<text text-anchor="middle" x="27" y="-40.3" font-family="Times,serif" font-size="14.00" fill="#000000">I</text>
</g>
<!-- b -->
<g id="node2" class="node">
<title>b</title>
<ellipse fill="none" stroke="#000000" cx="173.2976" cy="-44" rx="27.0966" ry="18"/>
<text text-anchor="middle" x="173.2976" y="-40.3" font-family="Times,serif" font-size="14.00" fill="#000000">will</text>
</g>
<!-- a&#45;&gt;b -->
<g id="edge1" class="edge">
<title>a&#45;&gt;b</title>
<path fill="none" stroke="#000000" d="M54.1746,-44C77.1247,-44 110.2284,-44 135.7169,-44"/>
<polygon fill="#000000" stroke="#000000" points="135.7721,-47.5001 145.7721,-44 135.772,-40.5001 135.7721,-47.5001"/>
<text text-anchor="middle" x="100" y="-47.8" font-family="Times,serif" font-size="14.00" fill="#000000">p(will|I)</text>
</g>
<!-- c -->
<g id="node3" class="node">
<title>c</title>
<ellipse fill="none" stroke="#000000" cx="264.5952" cy="-78" rx="27" ry="18"/>
<text text-anchor="middle" x="264.5952" y="-74.3" font-family="Times,serif" font-size="14.00" fill="#000000">not</text>
</g>
<!-- b&#45;&gt;c -->
<g id="edge2" class="edge">
<title>b&#45;&gt;c</title>
<path fill="none" stroke="#000000" d="M197.2849,-52.9331C207.6639,-56.7983 219.9878,-61.3878 231.236,-65.5768"/>
<polygon fill="#000000" stroke="#000000" points="230.1752,-68.9165 240.768,-69.1266 232.6182,-62.3566 230.1752,-68.9165"/>
</g>
<!-- d -->
<g id="node4" class="node">
<title>d</title>
<ellipse fill="none" stroke="#000000" cx="376.6909" cy="-44" rx="48.1917" ry="18"/>
<text text-anchor="middle" x="376.6909" y="-40.3" font-family="Times,serif" font-size="14.00" fill="#000000">endorse</text>
</g>
<!-- b&#45;&gt;d -->
<g id="edge3" class="edge">
<title>b&#45;&gt;d</title>
<path fill="none" stroke="#000000" d="M200.7281,-44C230.6891,-44 279.5594,-44 318.2038,-44"/>
<polygon fill="#000000" stroke="#000000" points="318.2981,-47.5001 328.2981,-44 318.298,-40.5001 318.2981,-47.5001"/>
</g>
<!-- c&#45;&gt;d -->
<g id="edge4" class="edge">
<title>c&#45;&gt;d</title>
<path fill="none" stroke="#000000" d="M289.195,-70.5386C300.9155,-66.9836 315.3486,-62.6059 329.0886,-58.4384"/>
<polygon fill="#000000" stroke="#000000" points="330.3687,-61.7076 338.9223,-55.4557 328.3369,-55.009 330.3687,-61.7076"/>
</g>
<!-- e -->
<g id="node5" class="node">
<title>e</title>
<ellipse fill="none" stroke="#000000" cx="510.5323" cy="-72" rx="48.9926" ry="18"/>
<text text-anchor="middle" x="510.5323" y="-68.3" font-family="Times,serif" font-size="14.00" fill="#000000">Sanders</text>
</g>
<!-- d&#45;&gt;e -->
<g id="edge5" class="edge">
<title>d&#45;&gt;e</title>
<path fill="none" stroke="#000000" d="M419.0391,-52.8594C431.3669,-55.4384 444.9865,-58.2876 457.8673,-60.9823"/>
<polygon fill="#000000" stroke="#000000" points="457.4953,-64.4802 468.0001,-63.1022 458.9288,-57.6285 457.4953,-64.4802"/>
</g>
<!-- f -->
<g id="node6" class="node">
<title>f</title>
<ellipse fill="none" stroke="#000000" cx="510.5323" cy="-18" rx="37.8943" ry="18"/>
<text text-anchor="middle" x="510.5323" y="-14.3" font-family="Times,serif" font-size="14.00" fill="#000000">Biden</text>
</g>
<!-- d&#45;&gt;f -->
<g id="edge6" class="edge">
<title>d&#45;&gt;f</title>
<path fill="none" stroke="#000000" d="M419.4071,-35.702C434.0766,-32.8523 450.5394,-29.6542 465.3948,-26.7684"/>
<polygon fill="#000000" stroke="#000000" points="466.2317,-30.1713 475.3807,-24.8285 464.8968,-23.2998 466.2317,-30.1713"/>
</g>
<!-- g -->
<g id="node7" class="node">
<title>g</title>
<ellipse fill="none" stroke="#000000" cx="618.278" cy="-44" rx="18" ry="18"/>
<ellipse fill="none" stroke="#000000" cx="618.278" cy="-44" rx="22" ry="22"/>
<text text-anchor="middle" x="618.278" y="-40.3" font-family="Times,serif" font-size="14.00" fill="#000000">.</text>
</g>
<!-- e&#45;&gt;g -->
<g id="edge7" class="edge">
<title>e&#45;&gt;g</title>
<path fill="none" stroke="#000000" d="M550.6528,-61.5738C562.6546,-58.4549 575.6323,-55.0824 586.979,-52.1337"/>
<polygon fill="#000000" stroke="#000000" points="588.0679,-55.4671 596.8661,-49.5643 586.3072,-48.6921 588.0679,-55.4671"/>
</g>
<!-- f&#45;&gt;g -->
<g id="edge8" class="edge">
<title>f&#45;&gt;g</title>
<path fill="none" stroke="#000000" d="M544.3281,-26.1552C558,-29.4544 573.685,-33.2393 587.0815,-36.472"/>
<polygon fill="#000000" stroke="#000000" points="586.2666,-39.8758 596.8087,-38.8193 587.9087,-33.0711 586.2666,-39.8758"/>
</g>
</g>
</svg>
